<svg version="1.1" xmlns="http://www.w3.org/2000/svg">

  <svg id="cross" viewBox="0 96 960 960">
    <path d="m249 849-42-42 231-231-231-231 42-42 231 231 231-231 42 42-231 231 231 231-42 42-231-231-231 231Z"/>
  </svg>

  <svg id="delete" viewBox="0 96 960 960">
    <path d="M261 936q-24.75 0-42.375-17.625T201 876V306h-41v-60h188v-30h264v30h188v60h-41v570q0 24-18 42t-42 18H261Zm438-630H261v570h438V306ZM367 790h60V391h-60v399Zm166 0h60V391h-60v399ZM261 306v570-570Z"/>
  </svg>

  <svg id="edit" viewBox="0 96 960 960">
    <path d="M180 876h44l443-443-44-44-443 443v44Zm614-486L666 262l42-42q17-17 42-17t42 17l44 44q17 17 17 42t-17 42l-42 42Zm-42 42L248 936H120V808l504-504 128 128Zm-107-21-22-22 44 44-22-22Z"/>
  </svg>
  
  <svg id="expand" viewBox="0 96 960 960">
    <path d="M480 711 240 471l43-43 197 198 197-197 43 43-240 239Z"/>
  </svg>
  
  <svg id="help" viewBox="0 96 960 960">
    <path d="M484 809q16 0 27-11t11-27q0-16-11-27t-27-11q-16 0-27 11t-11 27q0 16 11 27t27 11Zm-35-146h59q0-26 6.5-47.5T555 566q31-26 44-51t13-55q0-53-34.5-85T486 343q-49 0-86.5 24.5T345 435l53 20q11-28 33-43.5t52-15.5q34 0 55 18.5t21 47.5q0 22-13 41.5T508 544q-30 26-44.5 51.5T449 663Zm31 313q-82 0-155-31.5t-127.5-86Q143 804 111.5 731T80 576q0-83 31.5-156t86-127Q252 239 325 207.5T480 176q83 0 156 31.5T763 293q54 54 85.5 127T880 576q0 82-31.5 155T763 858.5q-54 54.5-127 86T480 976Zm0-60q142 0 241-99.5T820 576q0-142-99-241t-241-99q-141 0-240.5 99T140 576q0 141 99.5 240.5T480 916Zm0-340Z"/>
  </svg>

  <svg id="refresh" viewBox="0 96 960 960">
    <path d="M196 725q-20-36-28-72.5t-8-74.5q0-131 94.5-225.5T480 258h43l-80-80 39-39 149 149-149 149-40-40 79-79h-41q-107 0-183.5 76.5T220 578q0 29 5.5 55t13.5 49l-43 43Zm280 291L327 867l149-149 39 39-80 80h45q107 0 183.5-76.5T740 577q0-29-5-55t-15-49l43-43q20 36 28.5 72.5T800 577q0 131-94.5 225.5T480 897h-45l80 80-39 39Z"/>
  </svg>
</svg>